<?xml version="1.0" encoding="UTF-8" standalone="no"?>
<!-- Created with Inkscape (http://www.inkscape.org/) -->

<svg
   xmlns:dc="http://purl.org/dc/elements/1.1/"
   xmlns:cc="http://creativecommons.org/ns#"
   xmlns:rdf="http://www.w3.org/1999/02/22-rdf-syntax-ns#"
   xmlns:svg="http://www.w3.org/2000/svg"
   xmlns="http://www.w3.org/2000/svg"
   xmlns:sodipodi="http://sodipodi.sourceforge.net/DTD/sodipodi-0.dtd"
   xmlns:inkscape="http://www.inkscape.org/namespaces/inkscape"
   width="384.79999"
   height="442.10001"
   id="svg3032"
   version="1.1"
   inkscape:version="0.48.4 r9939"
   sodipodi:docname="logo.svg">
  <title
     id="title4483">NodeSchool Perth Logo</title>
  <defs
     id="defs3034" />
  <sodipodi:namedview
     id="base"
     pagecolor="#ffffff"
     bordercolor="#000000"
     borderopacity="1"
     inkscape:pageopacity="0.0"
     inkscape:pageshadow="2"
     inkscape:zoom="1.2148002"
     inkscape:cx="73.853272"
     inkscape:cy="174.8998"
     inkscape:document-units="px"
     inkscape:current-layer="layer1"
     showgrid="false"
     inkscape:showpageshadow="false"
     borderlayer="true"
     fit-margin-top="0"
     fit-margin-left="0"
     fit-margin-right="0"
     fit-margin-bottom="0"
     inkscape:window-width="1920"
     inkscape:window-height="1028"
     inkscape:window-x="-8"
     inkscape:window-y="-8"
     inkscape:window-maximized="1"
     showguides="true"
     inkscape:guide-bbox="true" />
  <metadata
     id="metadata3037">
    <rdf:RDF>
      <cc:Work
         rdf:about="">
        <dc:format>image/svg+xml</dc:format>
        <dc:type
           rdf:resource="http://purl.org/dc/dcmitype/StillImage" />
        <dc:title>NodeSchool Perth Logo</dc:title>
        <dc:creator>
          <cc:Agent>
            <dc:title>Michael Huynh</dc:title>
          </cc:Agent>
        </dc:creator>
        <cc:license
           rdf:resource="" />
      </cc:Work>
    </rdf:RDF>
  </metadata>
  <g
     inkscape:label="Layer 1"
     inkscape:groupmode="layer"
     id="layer1"
     transform="translate(207.65715,-228.07647)">
    <circle
       style="fill:none"
       sodipodi:ry="0.5"
       sodipodi:rx="0.5"
       sodipodi:cy="231.39999"
       sodipodi:cx="706.5"
       transform="translate(-719.73031,232.80103)"
       cx="706.5"
       cy="231.39999"
       r="0.5"
       id="circle383"
       d="m 707,231.39999 c 0,0.27615 -0.22386,0.5 -0.5,0.5 -0.27614,0 -0.5,-0.22385 -0.5,-0.5 0,-0.27614 0.22386,-0.5 0.5,-0.5 0.27614,0 0.5,0.22386 0.5,0.5 z" />
    <path
       id="path391-0-3"
       d="m 61.54285,305.87647 -75.9,-43.8 c 0,0 0,0 0,0 -0.1,-0.1 -0.2,-0.1 -0.3,-0.1 0,0 0,0 0,0 0,0 0,0 0,0 0,0 -0.1,0 -0.1,0 0,0 -0.1,0 -0.1,0 -0.1,0 -0.2,0 -0.3,0 0,0 0,0 -0.1,0 0,0 -0.1,0 -0.1,0 -0.1,0 -0.3,0 -0.4,0 0,0 0,0 0,0 0,0 0,0 0,0 0,0 0,0 0,0 -0.1,0 -0.2,0.1 -0.3,0.1 0,0 0,0 0,0 l -74.7,43.1 c -0.9,0.5 -1.2,1.6 -0.7,2.5 0.5,0.9 1.7,1.2 2.5,0.7 l 66.4,-38.3 -28.2,36 c -0.6,0.8 -0.5,2 0.3,2.6 0.8,0.6 2,0.5 2.6,-0.3 l 30.8,-39.3 v 38.4 c 0,1 0.8,1.9 1.9,1.9 1.1,0 1.9,-0.8 1.9,-1.9 v -38.4 l 30.8,39.3 c 0.4,0.5 0.9,0.7 1.5,0.7 0.4,0 0.8,-0.1 1.1,-0.4 0.8,-0.6 0.9,-1.8 0.3,-2.6 l -28.2,-36 67.6,39 c 0.3,0.2 0.6,0.2 0.9,0.2 0.6,0 1.3,-0.3 1.6,-0.9 0.4,-0.8 0.1,-2 -0.8,-2.5 z"
       inkscape:connector-curvature="0"
       style="fill:#002664;fill-opacity:1" />
    <path
       id="path393-9-2"
       d="m 61.04285,588.77647 c -0.5,-0.9 -1.7,-1.2 -2.5,-0.7 l -66.3,38.3 28.2,-36 c 0.6,-0.8 0.5,-2 -0.3,-2.6 -0.8,-0.6 -2,-0.5 -2.6,0.3 l -30.8,39.3 v -38.4 c 0,-1 -0.8,-1.9 -1.9,-1.9 -1.1,0 -1.9,0.8 -1.9,1.9 v 38.4 l -30.8,-39.3 c -0.6,-0.8 -1.8,-0.9 -2.6,-0.3 -0.8,0.6 -0.9,1.8 -0.3,2.6 l 28.2,36 -67.6,-39 c -0.9,-0.5 -2,-0.2 -2.5,0.7 -0.5,0.9 -0.2,2 0.7,2.5 l 75.9,43.8 c 0,0 0,0 0.1,0 0.1,0 0.1,0.1 0.2,0.1 0,0 0,0 0.1,0 0,0 0,0 0.1,0 0,0 0.1,0 0.1,0 0.1,0 0.3,0.1 0.4,0.1 l 0,0 0,0 0,0 c 0,0 0,0 0,0 0.2,0 0.3,0 0.4,-0.1 0,0 0.1,0 0.1,0 0,0 0.1,0 0.1,0 0.1,0 0.1,-0.1 0.2,-0.1 0,0 0,0 0.1,0 l 74.7,-43.1 c 0.7,-0.4 1,-1.6 0.5,-2.5 z"
       inkscape:connector-curvature="0"
       style="fill:#002664;fill-opacity:1" />
    <path
       id="circle395-4-2"
       d="m 68.34284,585.27648 c 0,1.27026 -1.02975,2.3 -2.3,2.3 -1.27026,0 -2.3,-1.02974 -2.3,-2.3 0,-1.27025 1.02974,-2.3 2.3,-2.3 1.27025,0 2.3,1.02975 2.3,2.3 z"
       style="fill:#002664;fill-opacity:1"
       inkscape:connector-curvature="0" />
    <path
       id="circle397-8-1"
       d="m -95.15716,585.27648 c 0,1.27026 -1.02975,2.3 -2.3,2.3 -1.27026,0 -2.3,-1.02974 -2.3,-2.3 0,-1.27025 1.02974,-2.3 2.3,-2.3 1.27025,0 2.3,1.02975 2.3,2.3 z"
       style="fill:#002664;fill-opacity:1"
       inkscape:connector-curvature="0" />
    <path
       style="fill:#002664;fill-opacity:1"
       d="M 192.40625,0 C 191.23125,0 190.05,0.30625 189,0.90625 L 3.40625,108 C 1.30625,109.2 0,111.50625 0,113.90625 L 0,328.1875 c 0,2.4 1.30625,4.70625 3.40625,5.90625 L 189,441.1875 c 1.1,0.6 2.20625,0.90625 3.40625,0.90625 1.2,0 2.40625,-0.30625 3.40625,-0.90625 L 381.40625,334.09375 c 2.1,-1.2 3.40625,-3.50625 3.40625,-5.90625 l 0,-214.28125 c 0,-2.4 -1.30625,-4.70625 -3.40625,-5.90625 L 195.8125,0.90625 C 194.7625,0.30625 193.58125,0 192.40625,0 z m 0,14.59375 178.78125,103.21875 0.0312,54 0.0937,0 0,8.375 -0.0937,0 0.0937,136.625 0,7.5 L 192.40625,427.5 13.6875,324.3125 l 0,-7.5 -0.25,-168.71875 -0.03125,0 0,-30.28125 179,-103.21875 z"
       transform="translate(-207.65715,228.07647)"
       id="path405-5"
       inkscape:connector-curvature="0" />
    <path
       style="fill:#002664;fill-opacity:1"
       inkscape:connector-curvature="0"
       d="m -19.593776,576.93413 v -8.7 c 0,-0.7 0.5,-1.2 1.2,-1.2 h 6.2 c 0.6,0 1.1,0.5 1.1,1.1 0,0.6 -0.5,1.1 -1.1,1.1 h -5 v 2.3 h 4.3 c 0.6,0 1.1,0.5 1.1,1.1 0,0.6 -0.5,1.1 -1.1,1.1 h -4.3 v 2.4 h 5.1 c 0.6,0 1.1,0.5 1.1,1.1 0,0.6 -0.5,1.1 -1.1,1.1 h -6.3 c -0.6,-0.2 -1.2,-0.7 -1.2,-1.4 z"
       id="path141" />
    <path
       style="fill:#002664;fill-opacity:1"
       inkscape:connector-curvature="0"
       d="m -63.408982,577.18055 c -0.426133,-0.55535 -0.333837,-1.25641 0.22151,-1.68254 l 2.618066,-2.00891 c 2.142054,-1.64366 4.385438,-1.34831 5.785589,0.4764 v 0 c 1.58278,2.06272 0.787463,4.3116 -1.19592,5.8335 l -1.507372,1.15665 1.339276,1.74538 c 0.426133,0.55534 0.333837,1.2564 -0.221511,1.68254 -0.555347,0.42613 -1.256404,0.33383 -1.682537,-0.22152 l -5.357101,-6.9815 z m 6.169305,0.8122 c 0.952024,-0.73051 1.160574,-1.77287 0.551812,-2.56622 v 0 c -0.669637,-0.87269 -1.669577,-0.8617 -2.621601,-0.13118 l -1.507371,1.15665 2.069789,2.6974 1.507371,-1.15665 z"
       id="path163" />
    <path
       style="fill:#002664;fill-opacity:1"
       inkscape:connector-curvature="0"
       d="m 25.836344,572.81194 c 0.375748,-0.5557 1.19501,-0.64958 1.750718,-0.27382 l 3.122881,2.32757 c 1.098498,0.85047 1.774049,1.84736 1.940959,2.87796 0.08081,0.91841 -0.135805,1.79766 -0.749,2.62469 l 0,0 c -1.088088,1.3697 -2.44223,1.69574 -3.804151,1.31471 l 0.04416,2.72912 c 0.04693,0.40963 0.0078,0.70706 -0.229668,0.97839 -0.375754,0.55571 -1.181959,0.55043 -1.638522,0.18773 -0.456448,-0.36285 -0.602648,-0.78537 -0.53738,-1.2811 l -0.09887,-3.8458 -1.554946,-1.21332 -1.463836,1.9254 c -0.375754,0.55571 -1.19501,0.64958 -1.750724,0.27383 -0.555713,-0.37574 -0.649576,-1.19501 -0.273824,-1.75072 l 5.24216,-6.87457 z m 1.384966,6.33498 c 0.913139,0.72538 1.930679,0.65763 2.431678,-0.0833 l 0,0 c 0.613192,-0.82703 0.433238,-1.7585 -0.579038,-2.49694 l -1.925421,-1.46381 -1.951784,2.5672 2.024566,1.47687 z"
       id="path293" />
    <path
       style="fill:#002664;fill-opacity:1"
       inkscape:connector-curvature="0"
       d="m -83.65715,343.92966 c 0.8,0 1.4,-0.6 1.4,-1.4 v -7.1 l 5.8,7.6 c 0.4,0.5 0.8,0.9 1.5,0.9 h 0.1 c 0.8,0 1.5,-0.6 1.5,-1.5 v -10.5 c 0,-0.8 -0.6,-1.4 -1.4,-1.4 -0.8,0 -1.4,0.6 -1.4,1.4 v 6.8 l -5.6,-7.4 c -0.4,-0.5 -0.8,-0.9 -1.5,-0.9 h -0.3 c -0.8,0 -1.5,0.6 -1.5,1.5 v 10.5 c 0,0.9 0.6,1.5 1.4,1.5 z"
       id="path407" />
    <path
       style="fill:#002664;fill-opacity:1"
       inkscape:connector-curvature="0"
       d="m -63.75715,344.02966 c 4.1,0 7.1,-3.1 7.1,-6.8 v 0 c 0,-3.8 -2.9,-6.8 -7,-6.8 -4.1,0 -7.1,3.1 -7.1,6.8 v 0 c 0,3.8 2.9,6.8 7,6.8 z m -3.9,-6.8 c 0,-2.3 1.6,-4.1 4,-4.1 2.3,0 4,1.9 4,4.2 v 0 c 0,2.3 -1.6,4.1 -4,4.1 -2.4,-0.1 -4,-1.9 -4,-4.2 l 0,0 z"
       id="path409" />
    <path
       style="fill:#002664;fill-opacity:1"
       inkscape:connector-curvature="0"
       d="m -52.65715,343.82966 h 3.7 c 4.2,0 7,-2.9 7,-6.6 v 0 c 0,-3.7 -2.9,-6.6 -7,-6.6 h -3.7 c -0.8,0 -1.5,0.6 -1.5,1.5 v 10.2 c 0.1,0.9 0.7,1.5 1.5,1.5 z m 1.5,-10.6 h 2.2 c 2.4,0 4,1.6 4,4 v 0 c 0,2.3 -1.6,4 -4,4 h -2.2 v -8 z"
       id="path411" />
    <path
       style="fill:#002664;fill-opacity:1"
       inkscape:connector-curvature="0"
       d="m -37.85715,343.82966 h 7.4 c 0.7,0 1.3,-0.6 1.3,-1.3 0,-0.7 -0.6,-1.3 -1.3,-1.3 h -6 v -2.8 h 5 c 0.7,0 1.3,-0.6 1.3,-1.3 0,-0.7 -0.6,-1.3 -1.3,-1.3 h -5 v -2.7 h 5.9 c 0.7,0 1.3,-0.6 1.3,-1.3 0,-0.7 -0.6,-1.3 -1.3,-1.3 h -7.3 c -0.8,0 -1.5,0.6 -1.5,1.5 v 10.3 c 0.1,0.9 0.7,1.5 1.5,1.5 z"
       id="path413" />
    <path
       style="fill:#002664;fill-opacity:1"
       inkscape:connector-curvature="0"
       d="m -26.85715,342.42966 c 1.5,1.1 3.2,1.6 5,1.6 2.9,0 4.9,-1.5 4.9,-4.1 v 0 c 0,-2.3 -1.5,-3.3 -4.2,-4 -2.3,-0.6 -2.9,-0.9 -2.9,-1.7 v 0 c 0,-0.6 0.6,-1.2 1.7,-1.2 0.9,0 1.8,0.3 2.8,0.9 0.2,0.1 0.5,0.2 0.7,0.2 0.8,0 1.4,-0.6 1.4,-1.3 0,-0.6 -0.3,-1 -0.6,-1.2 -1.2,-0.8 -2.6,-1.2 -4.2,-1.2 -2.7,0 -4.6,1.6 -4.6,4 v 0 c 0,2.6 1.7,3.4 4.4,4 2.2,0.6 2.7,0.9 2.7,1.7 v 0 c 0,0.8 -0.7,1.2 -1.9,1.2 -1.3,0 -2.4,-0.5 -3.4,-1.2 -0.2,-0.1 -0.5,-0.3 -0.8,-0.3 -0.8,0 -1.4,0.6 -1.4,1.3 -0.2,0.7 0.1,1.1 0.4,1.3 z"
       id="path415" />
    <path
       style="fill:#002664;fill-opacity:1"
       inkscape:connector-curvature="0"
       d="m -8.35715,344.02966 c 2.1,0 3.5,-0.6 4.7,-1.7 0.3,-0.2 0.5,-0.6 0.5,-1 0,-0.7 -0.6,-1.3 -1.4,-1.3 -0.3,0 -0.6,0.1 -0.9,0.3 -0.8,0.7 -1.6,1 -2.9,1 -2.3,0 -3.8,-1.9 -3.8,-4.2 v 0 c 0,-2.3 1.6,-4.1 3.8,-4.1 1,0 1.9,0.3 2.7,0.9 0.2,0.1 0.5,0.3 0.9,0.3 0.8,0 1.4,-0.6 1.4,-1.4 0,-0.5 -0.3,-0.9 -0.6,-1.2 -1.1,-0.8 -2.4,-1.3 -4.4,-1.3 -4.1,0 -6.9,3.1 -6.9,6.8 v 0 c 0.2,3.9 3.1,6.9 6.9,6.9 z"
       id="path417" />
    <path
       style="fill:#002664;fill-opacity:1"
       inkscape:connector-curvature="0"
       d="m 0.94285,343.92966 c 0.8,0 1.5,-0.6 1.5,-1.5 v -4 h 5.4 v 4 c 0,0.8 0.6,1.5 1.5,1.5 0.8,0 1.5,-0.6 1.5,-1.5 v -10.5 c 0,-0.8 -0.6,-1.5 -1.5,-1.5 -0.8,0 -1.5,0.6 -1.5,1.5 v 3.9 h -5.4 v -3.9 c 0,-0.8 -0.6,-1.5 -1.5,-1.5 -0.8,0 -1.5,0.6 -1.5,1.5 v 10.5 c 0,0.9 0.6,1.5 1.5,1.5 z"
       id="path419" />
    <path
       style="fill:#002664;fill-opacity:1"
       inkscape:connector-curvature="0"
       d="m 20.24285,344.02966 c 4.1,0 7,-3.1 7,-6.8 v 0 c 0,-3.8 -2.9,-6.8 -7,-6.8 -4.1,0 -7.1,3.1 -7.1,6.8 v 0 c 0.1,3.8 3,6.8 7.1,6.8 z m -4,-6.8 c 0,-2.3 1.6,-4.1 4,-4.1 2.3,0 4,1.9 4,4.2 v 0 c 0,2.3 -1.6,4.1 -4,4.1 -2.3,-0.1 -4,-1.9 -4,-4.2 l 0,0 z"
       id="path421" />
    <path
       style="fill:#002664;fill-opacity:1"
       inkscape:connector-curvature="0"
       d="m 36.34285,344.02966 c 4.1,0 7.1,-3.1 7.1,-6.8 v 0 c 0,-3.8 -2.9,-6.8 -7,-6.8 -4.1,0 -7.1,3.1 -7.1,6.8 v 0 c 0,3.8 2.9,6.8 7,6.8 z m -4,-6.8 c 0,-2.3 1.6,-4.1 4,-4.1 2.3,0 4,1.9 4,4.2 v 0 c 0,2.3 -1.6,4.1 -4,4.1 -2.3,-0.1 -4,-1.9 -4,-4.2 l 0,0 z"
       id="path423" />
    <path
       style="fill:#002664;fill-opacity:1"
       inkscape:connector-curvature="0"
       d="m 47.44285,343.82966 h 6.8 c 0.7,0 1.3,-0.6 1.3,-1.3 0,-0.7 -0.6,-1.3 -1.3,-1.3 h -5.4 v -9.2 c 0,-0.8 -0.6,-1.5 -1.5,-1.5 -0.8,0 -1.5,0.6 -1.5,1.5 v 10.3 c 0.1,0.9 0.8,1.5 1.6,1.5 z"
       id="path425" />
    <rect
       style="fill:none;stroke:#002664;stroke-width:3.50000000000000000;stroke-linecap:round;stroke-linejoin:round;stroke-miterlimit:4;stroke-opacity:1;stroke-dasharray:none"
       id="rect4498"
       width="156.66489"
       height="26.110815"
       x="-93.187424"
       y="324.41464"
       ry="1.6325241" />
  </g>
</svg>
