<?xml version="1.0" standalone="no"?>
<!DOCTYPE svg PUBLIC "-//W3C//DTD SVG 1.1//EN" "http://www.w3.org/Graphics/SVG/1.1/DTD/svg11.dtd">
<svg width="100%" height="100%" viewBox="0 0 385 443" version="1.1" xmlns="http://www.w3.org/2000/svg" xmlns:xlink="http://www.w3.org/1999/xlink" xml:space="preserve" style="fill-rule:evenodd;clip-rule:evenodd;stroke-linecap:round;stroke-linejoin:round;stroke-miterlimit:1.41421;">
    <g id="Layer 1" transform="matrix(1,0,0,1,207.657,-228.076)">
        <g id="circle383" transform="matrix(1,0,0,1,-719.73,232.801)">
            <circle cx="706.5" cy="231.4" r="0.5" style="fill:white;"/>
        </g>
        <path id="path391-0-3" d="M61.543,305.876L-14.357,262.076C-14.457,261.976 -14.557,261.976 -14.657,261.976L-14.757,261.976L-14.857,261.976C-14.957,261.976 -15.057,261.976 -15.157,261.976L-15.257,261.976L-15.357,261.976C-15.457,261.976 -15.657,261.976 -15.757,261.976C-15.857,261.976 -15.957,262.076 -16.057,262.076L-90.757,305.176C-91.657,305.676 -91.957,306.776 -91.457,307.676C-90.957,308.576 -89.757,308.876 -88.957,308.376L-22.557,270.076L-50.757,306.076C-51.357,306.876 -51.257,308.076 -50.457,308.676C-49.657,309.276 -48.457,309.176 -47.857,308.376L-17.057,269.076L-17.057,307.476C-17.057,308.476 -16.257,309.376 -15.157,309.376C-14.057,309.376 -13.257,308.576 -13.257,307.476L-13.257,269.076L17.543,308.376C17.943,308.876 18.443,309.076 19.043,309.076C19.443,309.076 19.843,308.976 20.143,308.676C20.943,308.076 21.043,306.876 20.443,306.076L-7.757,270.076L59.843,309.076C60.143,309.276 60.443,309.276 60.743,309.276C61.343,309.276 62.043,308.976 62.343,308.376C62.743,307.576 62.443,306.376 61.543,305.876L61.543,305.876Z" style="fill:white;fill-rule:nonzero;"/>
        <path id="path393-9-2" d="M61.043,588.776C60.543,587.876 59.343,587.576 58.543,588.076L-7.757,626.376L20.443,590.376C21.043,589.576 20.943,588.376 20.143,587.776C19.343,587.176 18.143,587.276 17.543,588.076L-13.257,627.376L-13.257,588.976C-13.257,587.976 -14.057,587.076 -15.157,587.076C-16.257,587.076 -17.057,587.876 -17.057,588.976L-17.057,627.376L-47.857,588.076C-48.457,587.276 -49.657,587.176 -50.457,587.776C-51.257,588.376 -51.357,589.576 -50.757,590.376L-22.557,626.376L-90.157,587.376C-91.057,586.876 -92.157,587.176 -92.657,588.076C-93.157,588.976 -92.857,590.076 -91.957,590.576L-16.057,634.376L-15.957,634.376C-15.857,634.376 -15.857,634.476 -15.757,634.476L-15.457,634.476C-15.357,634.476 -15.157,634.576 -15.057,634.576C-14.857,634.576 -14.757,634.576 -14.657,634.476L-14.457,634.476C-14.357,634.476 -14.357,634.376 -14.257,634.376L-14.157,634.376L60.543,591.276C61.243,590.876 61.543,589.676 61.043,588.776L61.043,588.776Z" style="fill:white;fill-rule:nonzero;"/>
        <path id="circle395-4-2" d="M68.343,585.276C68.343,586.547 67.313,587.576 66.043,587.576C64.773,587.576 63.743,586.547 63.743,585.276C63.743,584.006 64.773,582.976 66.043,582.976C67.313,582.976 68.343,584.006 68.343,585.276Z" style="fill:white;fill-rule:nonzero;"/>
        <path id="circle397-8-1" d="M-95.157,585.276C-95.157,586.547 -96.187,587.576 -97.457,587.576C-98.727,587.576 -99.757,586.547 -99.757,585.276C-99.757,584.006 -98.727,582.976 -97.457,582.976C-96.187,582.976 -95.157,584.006 -95.157,585.276Z" style="fill:white;fill-rule:nonzero;"/>
        <g id="path405-5" transform="matrix(1,0,0,1,-207.657,228.076)">
            <path d="M192.406,0C191.231,0 190.05,0.306 189,0.906L3.406,108C1.306,109.2 0,111.506 0,113.906L0,328.188C0,330.588 1.306,332.894 3.406,334.094L189,441.188C190.1,441.788 191.206,442.094 192.406,442.094C193.606,442.094 194.813,441.788 195.813,441.188L381.406,334.094C383.506,332.894 384.813,330.588 384.813,328.188L384.813,113.906C384.813,111.506 383.506,109.2 381.406,108L195.813,0.906C194.763,0.306 193.581,0 192.406,0ZM192.406,14.594L371.188,117.813L371.219,171.813L371.312,171.813L371.312,180.188L371.219,180.188L371.312,316.813L371.312,324.313L192.406,427.5L13.688,324.313L13.688,316.813L13.438,148.094L13.406,148.094L13.406,117.813L192.406,14.594Z" style="fill:white;fill-rule:nonzero;"/>
        </g>
        <path id="path141" d="M-19.594,576.934L-19.594,568.234C-19.594,567.534 -19.094,567.034 -18.394,567.034L-12.194,567.034C-11.594,567.034 -11.094,567.534 -11.094,568.134C-11.094,568.734 -11.594,569.234 -12.194,569.234L-17.194,569.234L-17.194,571.534L-12.894,571.534C-12.294,571.534 -11.794,572.034 -11.794,572.634C-11.794,573.234 -12.294,573.734 -12.894,573.734L-17.194,573.734L-17.194,576.134L-12.094,576.134C-11.494,576.134 -10.994,576.634 -10.994,577.234C-10.994,577.834 -11.494,578.334 -12.094,578.334L-18.394,578.334C-18.994,578.134 -19.594,577.634 -19.594,576.934Z" style="fill:white;fill-rule:nonzero;"/>
        <path id="path163" d="M-63.409,577.181C-63.835,576.625 -63.743,575.924 -63.187,575.498L-60.569,573.489C-58.427,571.845 -56.184,572.141 -54.784,573.966C-53.201,576.028 -53.996,578.277 -55.98,579.799L-57.487,580.956L-56.148,582.701C-55.722,583.256 -55.814,583.957 -56.369,584.384C-56.925,584.81 -57.626,584.717 -58.052,584.162L-63.409,577.181L-63.409,577.181ZM-57.24,577.993C-56.288,577.262 -56.079,576.22 -56.688,575.427C-57.358,574.554 -58.357,574.565 -59.309,575.295L-60.817,576.452L-58.747,579.149L-57.24,577.993Z" style="fill:white;fill-rule:nonzero;"/>
        <path id="path293" d="M25.836,572.812C26.212,572.256 27.031,572.162 27.587,572.538L30.71,574.866C31.808,575.716 32.484,576.713 32.651,577.744C32.732,578.662 32.515,579.541 31.902,580.368C30.814,581.738 29.46,582.064 28.098,581.683L28.142,584.412C28.189,584.822 28.15,585.119 27.912,585.391C27.536,585.946 26.73,585.941 26.274,585.578C25.817,585.215 25.671,584.793 25.736,584.297L25.637,580.451L24.083,579.238L22.619,581.163C22.243,581.719 21.424,581.813 20.868,581.437C20.312,581.062 20.218,580.242 20.594,579.687L25.836,572.812L25.836,572.812ZM27.221,579.147C28.134,579.872 29.152,579.805 29.653,579.064C30.266,578.237 30.086,577.305 29.074,576.567L27.149,575.103L25.197,577.67L27.221,579.147L27.221,579.147Z" style="fill:white;fill-rule:nonzero;"/>
        <path id="path407" d="M-83.657,343.93C-82.857,343.93 -82.257,343.33 -82.257,342.53L-82.257,335.43L-76.457,343.03C-76.057,343.53 -75.657,343.93 -74.957,343.93L-74.857,343.93C-74.057,343.93 -73.357,343.33 -73.357,342.43L-73.357,331.93C-73.357,331.13 -73.957,330.53 -74.757,330.53C-75.557,330.53 -76.157,331.13 -76.157,331.93L-76.157,338.73L-81.757,331.33C-82.157,330.83 -82.557,330.43 -83.257,330.43L-83.557,330.43C-84.357,330.43 -85.057,331.03 -85.057,331.93L-85.057,342.43C-85.057,343.33 -84.457,343.93 -83.657,343.93L-83.657,343.93Z" style="fill:white;fill-rule:nonzero;"/>
        <path id="path409" d="M-63.757,344.03C-59.657,344.03 -56.657,340.93 -56.657,337.23C-56.657,333.43 -59.557,330.43 -63.657,330.43C-67.757,330.43 -70.757,333.53 -70.757,337.23C-70.757,341.03 -67.857,344.03 -63.757,344.03L-63.757,344.03ZM-67.657,337.23C-67.657,334.93 -66.057,333.13 -63.657,333.13C-61.357,333.13 -59.657,335.03 -59.657,337.33C-59.657,339.63 -61.257,341.43 -63.657,341.43C-66.057,341.33 -67.657,339.53 -67.657,337.23Z" style="fill:white;fill-rule:nonzero;"/>
        <path id="path411" d="M-52.657,343.83L-48.957,343.83C-44.757,343.83 -41.957,340.93 -41.957,337.23C-41.957,333.53 -44.857,330.63 -48.957,330.63L-52.657,330.63C-53.457,330.63 -54.157,331.23 -54.157,332.13L-54.157,342.33C-54.057,343.23 -53.457,343.83 -52.657,343.83L-52.657,343.83ZM-51.157,333.23L-48.957,333.23C-46.557,333.23 -44.957,334.83 -44.957,337.23C-44.957,339.53 -46.557,341.23 -48.957,341.23L-51.157,341.23L-51.157,333.23Z" style="fill:white;fill-rule:nonzero;"/>
        <path id="path413" d="M-37.857,343.83L-30.457,343.83C-29.757,343.83 -29.157,343.23 -29.157,342.53C-29.157,341.83 -29.757,341.23 -30.457,341.23L-36.457,341.23L-36.457,338.43L-31.457,338.43C-30.757,338.43 -30.157,337.83 -30.157,337.13C-30.157,336.43 -30.757,335.83 -31.457,335.83L-36.457,335.83L-36.457,333.13L-30.557,333.13C-29.857,333.13 -29.257,332.53 -29.257,331.83C-29.257,331.13 -29.857,330.53 -30.557,330.53L-37.857,330.53C-38.657,330.53 -39.357,331.13 -39.357,332.03L-39.357,342.33C-39.257,343.23 -38.657,343.83 -37.857,343.83L-37.857,343.83Z" style="fill:white;fill-rule:nonzero;"/>
        <path id="path415" d="M-26.857,342.43C-25.357,343.53 -23.657,344.03 -21.857,344.03C-18.957,344.03 -16.957,342.53 -16.957,339.93C-16.957,337.63 -18.457,336.63 -21.157,335.93C-23.457,335.33 -24.057,335.03 -24.057,334.23C-24.057,333.63 -23.457,333.03 -22.357,333.03C-21.457,333.03 -20.557,333.33 -19.557,333.93C-19.357,334.03 -19.057,334.13 -18.857,334.13C-18.057,334.13 -17.457,333.53 -17.457,332.83C-17.457,332.23 -17.757,331.83 -18.057,331.63C-19.257,330.83 -20.657,330.43 -22.257,330.43C-24.957,330.43 -26.857,332.03 -26.857,334.43C-26.857,337.03 -25.157,337.83 -22.457,338.43C-20.257,339.03 -19.757,339.33 -19.757,340.13C-19.757,340.93 -20.457,341.33 -21.657,341.33C-22.957,341.33 -24.057,340.83 -25.057,340.13C-25.257,340.03 -25.557,339.83 -25.857,339.83C-26.657,339.83 -27.257,340.43 -27.257,341.13C-27.457,341.83 -27.157,342.23 -26.857,342.43L-26.857,342.43Z" style="fill:white;fill-rule:nonzero;"/>
        <path id="path417" d="M-8.357,344.03C-6.257,344.03 -4.857,343.43 -3.657,342.33C-3.357,342.13 -3.157,341.73 -3.157,341.33C-3.157,340.63 -3.757,340.03 -4.557,340.03C-4.857,340.03 -5.157,340.13 -5.457,340.33C-6.257,341.03 -7.057,341.33 -8.357,341.33C-10.657,341.33 -12.157,339.43 -12.157,337.13C-12.157,334.83 -10.557,333.03 -8.357,333.03C-7.357,333.03 -6.457,333.33 -5.657,333.93C-5.457,334.03 -5.157,334.23 -4.757,334.23C-3.957,334.23 -3.357,333.63 -3.357,332.83C-3.357,332.33 -3.657,331.93 -3.957,331.63C-5.057,330.83 -6.357,330.33 -8.357,330.33C-12.457,330.33 -15.257,333.43 -15.257,337.13C-15.057,341.03 -12.157,344.03 -8.357,344.03Z" style="fill:white;fill-rule:nonzero;"/>
        <path id="path419" d="M0.943,343.93C1.743,343.93 2.443,343.33 2.443,342.43L2.443,338.43L7.843,338.43L7.843,342.43C7.843,343.23 8.443,343.93 9.343,343.93C10.143,343.93 10.843,343.33 10.843,342.43L10.843,331.93C10.843,331.13 10.243,330.43 9.343,330.43C8.543,330.43 7.843,331.03 7.843,331.93L7.843,335.83L2.443,335.83L2.443,331.93C2.443,331.13 1.843,330.43 0.943,330.43C0.143,330.43 -0.557,331.03 -0.557,331.93L-0.557,342.43C-0.557,343.33 0.043,343.93 0.943,343.93Z" style="fill:white;fill-rule:nonzero;"/>
        <path id="path421" d="M20.243,344.03C24.343,344.03 27.243,340.93 27.243,337.23C27.243,333.43 24.343,330.43 20.243,330.43C16.143,330.43 13.143,333.53 13.143,337.23C13.243,341.03 16.143,344.03 20.243,344.03ZM16.243,337.23C16.243,334.93 17.843,333.13 20.243,333.13C22.543,333.13 24.243,335.03 24.243,337.33C24.243,339.63 22.643,341.43 20.243,341.43C17.943,341.33 16.243,339.53 16.243,337.23Z" style="fill:white;fill-rule:nonzero;"/>
        <path id="path423" d="M36.343,344.03C40.443,344.03 43.443,340.93 43.443,337.23C43.443,333.43 40.543,330.43 36.443,330.43C32.343,330.43 29.343,333.53 29.343,337.23C29.343,341.03 32.243,344.03 36.343,344.03ZM32.343,337.23C32.343,334.93 33.943,333.13 36.343,333.13C38.643,333.13 40.343,335.03 40.343,337.33C40.343,339.63 38.743,341.43 36.343,341.43C34.043,341.33 32.343,339.53 32.343,337.23Z" style="fill:white;fill-rule:nonzero;"/>
        <path id="path425" d="M47.443,343.83L54.243,343.83C54.943,343.83 55.543,343.23 55.543,342.53C55.543,341.83 54.943,341.23 54.243,341.23L48.843,341.23L48.843,332.03C48.843,331.23 48.243,330.53 47.343,330.53C46.543,330.53 45.843,331.13 45.843,332.03L45.843,342.33C45.943,343.23 46.643,343.83 47.443,343.83Z" style="fill:white;fill-rule:nonzero;"/>
        <rect id="rect4498" x="-93.187" y="324.415" width="156.665" height="26.111" style="fill:none;stroke-width:3.5px;stroke:white;"/>
    </g>
</svg>
